<svg xmlns="http://www.w3.org/2000/svg" viewBox="0 0 26 26">
  <path d="M12 4C11.398438 4 11 4.398438 11 5L11 7C11 7.601563 11.398438 8 12 8L14 8C14.601563 8 15 7.601563 15 7L15 5C15 4.398438 14.601563 4 14 4 Z M 4 11C3.398438 11 3 11.398438 3 12L3 14C3 14.601563 3.398438 15 4 15L22 15C22.601563 15 23 14.601563 23 14L23 12C23 11.398438 22.601563 11 22 11 Z M 12 18C11.398438 18 11 18.398438 11 19L11 21C11 21.601563 11.398438 22 12 22L14 22C14.601563 22 15 21.601563 15 21L15 19C15 18.398438 14.601563 18 14 18Z" fill="#78007A" />
</svg>